<?xml version="1.0" encoding="utf-8"?>
<!-- Generator: Adobe Illustrator 24.0.0, SVG Export Plug-In . SVG Version: 6.00 Build 0)  -->
<svg version="1.1" id="Capa_1" xmlns="http://www.w3.org/2000/svg" xmlns:xlink="http://www.w3.org/1999/xlink" x="0px" y="0px"
	 viewBox="0 0 170 14.8" style="enable-background:new 0 0 170 14.8;" xml:space="preserve">
<style type="text/css">
	.st0{fill:#FFFFFF;}
</style>
<g>
	<title>health-solution</title>
	<path class="st0" d="M0,0.3h2.9v5.1c0,0.2,0,0.3,0,0.5c0.2,0,0.3,0,0.5,0h5.1c0.2,0,0.3,0,0.5,0c0-0.2,0-0.3,0-0.5V0.3h3v14.4H9
		V8.8c0-0.2,0-0.3,0-0.5c-0.2,0-0.3,0-0.5,0h-5c-0.2,0-0.3,0-0.5,0c0,0.2,0.1,0.3,0,0.5v5.9H0V0.3z"/>
	<path class="st0" d="M14.6,0.3h8v2.5H18c-0.2,0-0.3,0-0.5,0c0,0.2,0,0.3,0,0.5v2.4c0,0.2,0,0.3,0,0.5c0.2,0,0.3,0,0.5,0h4.6v2.4H18
		c-0.2,0-0.3,0-0.5,0c0,0.2,0,0.3,0,0.5v2.8c0,0.2,0,0.3,0,0.5c0.2,0,0.3-0.1,0.5,0h4.6V15h-8V0.3z"/>
	<path class="st0" d="M28.4,0.3h3.1l5.1,14.4h-3.1l-1.1-3.1h-5.2l-1,3.1h-3L28.4,0.3z M30.7,9.3c0.4,0,0.7,0,1.1,0
		c-0.2-0.3-0.3-0.7-0.4-1.1l-0.7-2c-0.3-1-0.6-2.1-0.8-3.1h-0.1c-0.2,1.1-0.5,2.1-0.8,3.1l-0.6,2.1c-0.2,0.5-0.2,0.6-0.4,1
		c0.4,0,0.7,0,1.1,0L30.7,9.3z"/>
	<path class="st0" d="M38,0.3h3v11.4c0,0.2,0,0.3,0,0.5c0.2,0,0.3-0.1,0.5,0h4.1v2.6H38V0.3z"/>
	<path class="st0" d="M43.7,0.3h10.2v2.5h-3.2c-0.2,0-0.3,0-0.5,0c0,0.2,0,0.3,0,0.5v11.4h-2.9V3.3c0-0.2,0-0.3,0-0.5
		c-0.2,0-0.3,0-0.5,0h-3.2V0.3H43.7z"/>
	<path class="st0" d="M55.6,0.3h2.9v5.1c0,0.2,0,0.3,0,0.5c0.2,0,0.3,0,0.5,0h5.1c0.2,0,0.3,0,0.5,0c0-0.2-0.1-0.3,0-0.5V0.3h3v14.4
		h-3V8.8c0-0.2,0-0.3,0-0.5c-0.2,0-0.3,0-0.5,0H59c-0.2,0-0.3,0-0.5,0c0,0.2,0,0.3,0,0.5v5.9h-2.9V0.3z"/>
	<path class="st0" d="M72.8,11.1c0.4,1.3,1.7,2.2,3,2.1c1.5,0.1,2.7-1,2.8-2.4c0-0.1,0-0.2,0-0.3c0-0.6-0.2-1.1-0.5-1.6
		C77.6,8.4,77,8,76.3,7.8c-1.2-0.4-2.4-1.1-3.4-1.9c-0.5-0.6-0.8-1.3-0.8-2.1c0-2,1.4-3.4,3.7-3.4c0.9,0,1.9,0.3,2.6,0.8
		c0.4,0.3,0.7,0.8,0.9,1.2l-1,0.6c-0.8-1.1-1.3-1.5-2.4-1.5c-1.2-0.1-2.2,0.8-2.3,2v0.1c0,1.1,0.6,1.8,2.2,2.4
		c1.2,0.4,2.3,1,3.3,1.8c0.6,0.7,1,1.6,0.9,2.6c0,2.3-1.8,3.9-4.3,3.9c-1.3,0-2.5-0.5-3.3-1.5c-0.3-0.4-0.6-0.8-0.7-1.3L72.8,11.1z"
		/>
	<path class="st0" d="M96.1,7.3c0,3.9-3.2,7-7.2,7h-0.1c-2-0.1-3.9-0.9-5.3-2.4c-1.1-1.2-1.8-2.9-1.8-4.5c0.1-3.9,3.5-7,7.4-6.9
		C93,0.6,96,3.6,96.1,7.3L96.1,7.3z M83.2,7.3c-0.1,3.2,2.3,5.9,5.5,6c3.2,0.1,5.9-2.3,6-5.5c0-0.2,0-0.3,0-0.5
		c-0.1-3.2-2.8-5.7-6-5.5C85.7,1.9,83.3,4.3,83.2,7.3z"/>
	<path class="st0" d="M98.7,0.8h1.3v11.7c0,0.1,0,0.3,0,0.4c0.1,0,0.3,0,0.4,0h3.8v1h-5.5C98.7,13.9,98.7,0.8,98.7,0.8z"/>
	<path class="st0" d="M115.1,9.1c0,1.7-0.2,2.6-0.8,3.4c-1,1.2-2.4,1.8-3.9,1.8c-1.7,0.1-3.3-0.8-4.2-2.2c-0.4-0.9-0.6-1.9-0.5-3
		V0.8h1.3v8.3c0,0.9,0.2,1.9,0.6,2.7c0.7,0.9,1.7,1.4,2.8,1.4c1.3,0,2.4-0.7,3-1.8c0.3-0.7,0.4-1.5,0.4-2.3V0.8h1.3L115.1,9.1z"/>
	<path class="st0" d="M117,0.8h8.4v1h-3.1c-0.1,0-0.3,0-0.4,0c0,0.1,0,0.3,0,0.4v11.6h-1.3V2.3c0-0.1,0-0.3,0-0.4
		c-0.1,0-0.3,0-0.4,0H117V0.8z"/>
	<path class="st0" d="M127.4,0.8h1.3v13.1h-1.3C127.4,13.9,127.4,0.8,127.4,0.8z"/>
	<path class="st0" d="M145.6,7.3c0,3.9-3.2,7-7.2,7h-0.1c-2-0.1-3.9-0.9-5.3-2.4c-1.1-1.2-1.8-2.9-1.8-4.5c0.1-3.9,3.5-7,7.4-6.9
		C142.4,0.6,145.4,3.6,145.6,7.3L145.6,7.3z M132.7,7.3c-0.1,3.2,2.3,5.9,5.5,6c3.2,0.1,5.9-2.3,6-5.5c0-0.2,0-0.3,0-0.5
		c-0.1-3.2-2.8-5.7-6-5.5C135.2,1.9,132.8,4.3,132.7,7.3z"/>
	<path class="st0" d="M148.2,0l8,9c1,1.2,1.2,1.4,2,2.4h0.1c-0.1-1.3-0.1-1.6-0.1-3.1V0.8h1.2v13.7l-8-9.1c-1-1.1-1.2-1.4-2-2.4
		h-0.1c0.1,1.3,0.1,1.7,0.1,3.1v7.8h-1.2V0z"/>
	<path class="st0" d="M162.8,11.1c0.4,1.3,1.7,2.2,3,2.1c1.5,0.1,2.7-1,2.8-2.5c0-0.1,0-0.2,0-0.2c0-0.6-0.2-1.1-0.5-1.6
		c-0.5-0.5-1.1-0.9-1.8-1.1c-1.2-0.4-2.4-1.1-3.4-1.9c-0.5-0.6-0.8-1.3-0.8-2.1c0-2,1.4-3.4,3.7-3.4c0.9,0,1.9,0.3,2.6,0.8
		c0.4,0.3,0.7,0.8,0.9,1.2l-1,0.6c-0.8-1.1-1.4-1.5-2.4-1.5c-1.2-0.1-2.2,0.8-2.3,2v0.1c0,1.1,0.6,1.8,2.2,2.4
		c1.2,0.4,2.3,1,3.3,1.8c0.6,0.7,1,1.6,0.9,2.6c0,2.3-1.8,3.9-4.3,3.9c-1.8,0.1-3.5-1-4.1-2.8L162.8,11.1z"/>
</g>
</svg>
