<svg id="Capa_1" data-name="Capa 1" xmlns="http://www.w3.org/2000/svg" viewBox="0 0 125.71 16.1"><defs><style>.cls-1{fill:#fff;}</style></defs><title>power-by-aiva</title><rect class="cls-1" x="94.31" y="9.63" width="29.64" height="0.27"/><path class="cls-1" d="M48.23,9.9H58a.17.17,0,0,0,.16-.28L53.3,1.13a.18.18,0,0,0-.33,0l-4.9,8.49C48,9.77,48.05,9.9,48.23,9.9Z"/><path class="cls-1" d="M78.51,9.9h9.8c.18,0,.25-.13.16-.28l-4.9-8.49a.17.17,0,0,0-.32,0l-4.9,8.49C78.26,9.77,78.33,9.9,78.51,9.9Z"/><path class="cls-1" d="M72.8,9.8a.17.17,0,0,0,.32,0L78,1.31c.09-.15,0-.28-.16-.28h-9.8c-.18,0-.25.13-.16.28Z"/><rect class="cls-1" x="61.36" y="1.05" width="3.28" height="8.86" rx="0.16"/><polygon class="cls-1" points="95.92 9.9 90.79 1.02 88.51 1.02 93.64 9.9 95.92 9.9"/><path class="cls-1" d="M98,4.47h.77V5.82a.49.49,0,0,1,0,.13h1.6a.49.49,0,0,1,0-.13V4.47h.78V8.28h-.78V6.71a.45.45,0,0,1,0-.12h-1.6a.45.45,0,0,1,0,.12V8.28H98Z"/><path class="cls-1" d="M101.85,4.47H104v.64h-1.35a.49.49,0,0,1,0,.13v.64a.49.49,0,0,1,0,.13H104v.63h-1.35a.49.49,0,0,1,0,.13v.75a.45.45,0,0,1,0,.12H104v.68h-2.11Z"/><path class="cls-1" d="M105.49,4.47h.83l1.35,3.81h-.82l-.28-.82h-1.36l-.26.82h-.8Zm.6,2.38h.29a2.91,2.91,0,0,1-.1-.28L106.11,6a5.32,5.32,0,0,1-.21-.83h0a5.61,5.61,0,0,1-.21.83l-.17.55a2.15,2.15,0,0,1-.1.27h.7Z"/><path class="cls-1" d="M108,4.47h.78v3a.45.45,0,0,1,0,.12H110v.68h-2Z"/><path class="cls-1" d="M109.52,4.47h2.7v.66h-1a.45.45,0,0,1,0,.12v3h-.78v-3a.45.45,0,0,1,0-.12h-1Z"/><path class="cls-1" d="M112.67,4.47h.77V5.82a.49.49,0,0,1,0,.13H115a.49.49,0,0,1,0-.13V4.47h.78V8.28H115V6.71a.45.45,0,0,1,0-.12h-1.6a.45.45,0,0,1,0,.12V8.28h-.77Z"/><path class="cls-1" d="M98.28,14.18a.81.81,0,0,0,.81.56.7.7,0,0,0,.75-.71.83.83,0,0,0-.12-.42,1.11,1.11,0,0,0-.47-.29,2.79,2.79,0,0,1-.9-.51.8.8,0,0,1-.21-.55.88.88,0,0,1,1-.9,1.08,1.08,0,0,1,.69.22,1,1,0,0,1,.23.34l-.3.14c-.21-.3-.36-.4-.63-.4a.56.56,0,0,0-.6.56c0,.29.16.47.58.64a2.58,2.58,0,0,1,.86.48,1,1,0,0,1,.25.68,1,1,0,0,1-1.13,1A1,1,0,0,1,98,14.32Z"/><path class="cls-1" d="M104.44,13.19A1.87,1.87,0,0,1,102.52,15a1.9,1.9,0,0,1-1.39-.63,1.76,1.76,0,0,1-.47-1.2,1.89,1.89,0,0,1,3.78,0Zm-3.41,0a1.52,1.52,0,1,0,1.52-1.52A1.5,1.5,0,0,0,101,13.19Z"/><path class="cls-1" d="M105.12,11.48h.34v3.08a.41.41,0,0,1,0,.11h1.12v.28h-1.45Z"/><path class="cls-1" d="M109.46,13.67a1.39,1.39,0,0,1-.2.9,1.31,1.31,0,0,1-1,.48,1.25,1.25,0,0,1-1.11-.6,1.52,1.52,0,0,1-.13-.78V11.48h.34v2.19a1.42,1.42,0,0,0,.16.72.91.91,0,0,0,.74.36.89.89,0,0,0,.8-.46,1.77,1.77,0,0,0,.11-.62V11.48h.33Z"/><path class="cls-1" d="M110,11.48h2.21v.27h-.94a.45.45,0,0,1,0,.12v3.08h-.34V11.86a.45.45,0,0,1,0-.12h-1Z"/><path class="cls-1" d="M112.71,11.48h.34v3.46h-.34Z"/><path class="cls-1" d="M117.5,13.19A1.86,1.86,0,0,1,115.59,15a1.94,1.94,0,0,1-1.4-.63,1.8,1.8,0,0,1-.46-1.2,1.89,1.89,0,0,1,3.77,0Zm-3.4,0a1.52,1.52,0,1,0,1.52-1.52A1.5,1.5,0,0,0,114.1,13.19Z"/><path class="cls-1" d="M118.2,11.26l2.1,2.38c.27.3.31.36.53.63h0c0-.36,0-.44,0-.83v-2h.32v3.6L119,12.69c-.26-.3-.31-.36-.52-.64h0c0,.35,0,.44,0,.82v2.06h-.32Z"/><path class="cls-1" d="M122,14.18a.81.81,0,0,0,.81.56.69.69,0,0,0,.75-.71.74.74,0,0,0-.12-.42,1.13,1.13,0,0,0-.46-.29,2.75,2.75,0,0,1-.91-.51.8.8,0,0,1-.21-.55.88.88,0,0,1,1-.9,1,1,0,0,1,.69.22,1,1,0,0,1,.24.34l-.31.14a.69.69,0,0,0-.63-.4.56.56,0,0,0-.6.56c0,.29.16.47.58.64a2.58,2.58,0,0,1,.86.48A1,1,0,0,1,124,14a1.05,1.05,0,0,1-1.14,1,1.12,1.12,0,0,1-.88-.38,1.15,1.15,0,0,1-.2-.35Z"/><path class="cls-1" d="M1.76,5.45H3.15a1.21,1.21,0,0,1,1.28,1.3A1.19,1.19,0,0,1,3.13,8H2.47a.36.36,0,0,1-.15,0,.41.41,0,0,1,0,.16v1.92H1.76Zm.71.49a.36.36,0,0,1-.15,0,.41.41,0,0,1,0,.16V7.41a.36.36,0,0,1,0,.15H3a.75.75,0,0,0,.82-.81A.75.75,0,0,0,3,5.94Z"/><path class="cls-1" d="M10.61,6a2.32,2.32,0,0,1,.72,1.74A2.39,2.39,0,0,1,8.82,10.2,2.39,2.39,0,0,1,6.35,7.76,2.27,2.27,0,0,1,7.07,6a2.44,2.44,0,0,1,1.77-.69A2.39,2.39,0,0,1,10.61,6ZM7,7.78a1.89,1.89,0,1,0,3.78,0A1.89,1.89,0,1,0,7,7.78Z"/><path class="cls-1" d="M13.41,5.45l.79,2.37A12,12,0,0,1,14.55,9h0a10.19,10.19,0,0,1,.34-1.18l.86-2.66.92,2.67c.19.54.22.66.36,1.17h0c.13-.5.17-.62.34-1.17l.76-2.37h.62l-1.75,4.94-.91-2.64c-.19-.54-.22-.66-.36-1.15h0a9.34,9.34,0,0,1-.35,1.15l-.86,2.64L12.78,5.45Z"/><path class="cls-1" d="M20.79,5.45h2.49v.48H21.35a.36.36,0,0,1,0,.15V7.18a.36.36,0,0,1,0,.15h1.93v.46H21.35a.36.36,0,0,1,0,.15V9.47a.36.36,0,0,1,0,.15h1.93v.48H20.79Z"/><path class="cls-1" d="M25.5,5.45h1.37a1.15,1.15,0,0,1,1.28,1.28,1.09,1.09,0,0,1-.53,1,1.54,1.54,0,0,1-.78.2h0c.18.2.22.25.41.49l1.28,1.67h-.74L26.61,8.5a6.17,6.17,0,0,1-.54-.79h0c0,.41,0,.52,0,1v1.41H25.5Zm.71.47a.36.36,0,0,1-.15,0,.81.81,0,0,1,0,.16V7.35a.66.66,0,0,1,0,.15h.68a.72.72,0,0,0,.82-.79.71.71,0,0,0-.82-.78Z"/><path class="cls-1" d="M33.53,5.45h1.15a1.65,1.65,0,0,1,1,.26,1.17,1.17,0,0,1,.44,1,1,1,0,0,1-.75,1v0a1,1,0,0,1,1.06,1.16,1.2,1.2,0,0,1-1.31,1.26H33.53Zm.72.45H34.1a.71.71,0,0,1,0,.15V7.36a.71.71,0,0,1,0,.15h.47c.61,0,.93-.27.93-.78A.79.79,0,0,0,35.16,6a1.48,1.48,0,0,0-.66-.13Zm0,2a.34.34,0,0,1-.15,0,.71.71,0,0,1,0,.15V9.49a.76.76,0,0,1,0,.16.34.34,0,0,1,.15,0h.54c.66,0,1-.29,1-.84s-.36-.87-1-.87Z"/><path class="cls-1" d="M38.4,5.45,39.29,7c.14.24.16.28.27.5h0c.11-.22.13-.27.26-.51l.85-1.54h.65L39.82,8v2.11h-.56V8L37.71,5.45Z"/></svg>