<svg id="Capa_1" data-name="Capa 1" xmlns="http://www.w3.org/2000/svg" viewBox="0 0 179.57 15.43"><defs><style>.cls-1{fill:#fff;}</style></defs><path class="cls-1" d="M3.29,7.22H4.68A1.2,1.2,0,0,1,6,8.52a1.19,1.19,0,0,1-1.3,1.27H3.85a.66.66,0,0,1,0,.15v1.92H3.29ZM4,7.7H3.85a.71.71,0,0,1,0,.15V9.17a.66.66,0,0,1,0,.15h.7a.75.75,0,0,0,.82-.81.75.75,0,0,0-.82-.8Z"/><path class="cls-1" d="M12.14,7.79a2.34,2.34,0,0,1,.72,1.74A2.39,2.39,0,0,1,10.35,12,2.39,2.39,0,0,1,7.88,9.53,2.31,2.31,0,0,1,8.6,7.79a2.45,2.45,0,0,1,1.77-.68A2.44,2.44,0,0,1,12.14,7.79ZM8.47,9.54a1.9,1.9,0,1,0,3.79,0,1.9,1.9,0,1,0-3.79,0Z"/><path class="cls-1" d="M14.94,7.22l.79,2.37a12,12,0,0,1,.35,1.18h0a9.17,9.17,0,0,1,.34-1.18l.86-2.67.92,2.68a10.17,10.17,0,0,1,.35,1.17h0c.13-.5.16-.62.34-1.17l.75-2.37h.63l-1.75,4.94-.91-2.65a10,10,0,0,1-.36-1.15h0a9.91,9.91,0,0,1-.34,1.16l-.86,2.64L14.31,7.22Z"/><path class="cls-1" d="M22.32,7.22h2.49V7.7H23a.36.36,0,0,1-.15,0,.76.76,0,0,1,0,.16v1.1a.81.81,0,0,1,0,.16.36.36,0,0,1,.15,0h1.78v.47H23a.36.36,0,0,1-.15,0,.81.81,0,0,1,0,.16v1.54a.66.66,0,0,1,0,.15h1.93v.48H22.32Z"/><path class="cls-1" d="M27,7.22h1.37A1.16,1.16,0,0,1,29.68,8.5a1.08,1.08,0,0,1-.53,1,1.36,1.36,0,0,1-.78.2h0c.18.21.22.25.4.49L30,11.85h-.73l-1.17-1.59a6.52,6.52,0,0,1-.55-.78h0c0,.42,0,.53,0,1v1.41H27Zm.72.46h-.15a.66.66,0,0,1,0,.15v1.3a.71.71,0,0,1,0,.15.34.34,0,0,1,.15,0h.53a.71.71,0,0,0,.81-.78.71.71,0,0,0-.81-.79Z"/><path class="cls-1" d="M35.06,7.22h1.15a1.65,1.65,0,0,1,.95.25,1.23,1.23,0,0,1,.43,1,1,1,0,0,1-.75,1v0a1,1,0,0,1,1.06,1.16,1.2,1.2,0,0,1-1.32,1.26H35.06Zm.72.45a.34.34,0,0,1-.15,0,.81.81,0,0,1,0,.16V9.12a.81.81,0,0,1,0,.16.34.34,0,0,1,.15,0h.32c.6,0,.93-.27.93-.78a.79.79,0,0,0-.35-.69A1.42,1.42,0,0,0,36,7.67Zm0,2h-.15a.66.66,0,0,1,0,.15v1.44a.66.66,0,0,1,0,.15h.69c.66,0,1-.29,1-.85s-.36-.87-1-.87Z"/><path class="cls-1" d="M39.93,7.22l.88,1.54c.14.24.17.29.28.51h0a5,5,0,0,1,.26-.52l.85-1.53h.65L41.35,9.74v2.11h-.56V9.74L39.24,7.22Z"/><path class="cls-1" d="M73.55,3.43h1.78V6.54a.8.8,0,0,1,0,.28,1.28,1.28,0,0,1,.29,0h3.08a1.19,1.19,0,0,1,.28,0,1.19,1.19,0,0,1,0-.28V3.43h1.79v8.73H78.93V8.58a1.32,1.32,0,0,1,0-.29.8.8,0,0,1-.28,0H75.59a.86.86,0,0,1-.29,0,.89.89,0,0,1,0,.29v3.58H73.55Z"/><path class="cls-1" d="M82.41,3.43h4.85V4.91h-2.8a1.23,1.23,0,0,1-.29,0,1.19,1.19,0,0,1,0,.28V6.65a1.28,1.28,0,0,1,0,.29,1.23,1.23,0,0,1,.29,0h2.8V8.37h-2.8a.83.83,0,0,1-.29,0,1.32,1.32,0,0,1,0,.29v1.72a1.32,1.32,0,0,1,0,.29.83.83,0,0,1,.29,0h2.8v1.55H82.41Z"/><path class="cls-1" d="M90.76,3.43h1.9l3.09,8.73H93.87l-.64-1.88H90.11l-.6,1.88H87.69Zm1.37,5.46a4.86,4.86,0,0,1,.67,0,4.34,4.34,0,0,1-.22-.64L92.18,7a14.25,14.25,0,0,1-.49-1.89h-.06A16.38,16.38,0,0,1,91.15,7l-.39,1.26c-.1.29-.12.37-.23.63a4.86,4.86,0,0,1,.67,0Z"/><path class="cls-1" d="M96.56,3.43h1.78v6.92a.89.89,0,0,1,0,.29.89.89,0,0,1,.29,0h2.5v1.55H96.56Z"/><path class="cls-1" d="M100,3.43h6.18V5h-1.94a.89.89,0,0,1-.29,0,.89.89,0,0,1,0,.29v7h-1.78V5.21a1.32,1.32,0,0,1,0-.29.8.8,0,0,1-.28,0H100Z"/><path class="cls-1" d="M107.19,3.43H109V6.54a1.19,1.19,0,0,1,0,.28,1.23,1.23,0,0,1,.28,0h3.08a1.28,1.28,0,0,1,.29,0,1.19,1.19,0,0,1,0-.28V3.43h1.79v8.73h-1.79V8.58a1.32,1.32,0,0,1,0-.29.86.86,0,0,1-.29,0h-3.08a.83.83,0,0,1-.28,0,1.32,1.32,0,0,1,0,.29v3.58h-1.78Z"/><path class="cls-1" d="M117.72,10a1.81,1.81,0,0,0,1.83,1.26,1.59,1.59,0,0,0,1.72-1.62,1.74,1.74,0,0,0-.28-1A2.64,2.64,0,0,0,119.93,8a6.48,6.48,0,0,1-2.06-1.16,1.84,1.84,0,0,1-.47-1.27,2,2,0,0,1,2.2-2,2.43,2.43,0,0,1,1.58.51,2.3,2.3,0,0,1,.53.77L121,5.1c-.47-.69-.83-.91-1.44-.91a1.28,1.28,0,0,0-1.38,1.28c0,.66.37,1.07,1.33,1.46a5.74,5.74,0,0,1,2,1.1,2.23,2.23,0,0,1,.58,1.54,2.39,2.39,0,0,1-2.59,2.35,2.57,2.57,0,0,1-2-.86,2.65,2.65,0,0,1-.45-.79Z"/><path class="cls-1" d="M131.75,7.67a4.26,4.26,0,0,1-4.37,4.22,4.45,4.45,0,0,1-3.18-1.46,4.1,4.1,0,0,1-1-2.74,4.3,4.3,0,0,1,8.6,0Zm-7.77,0a3.47,3.47,0,1,0,6.94,0,3.47,3.47,0,1,0-6.94,0Z"/><path class="cls-1" d="M133.31,3.77h.77v7a1.06,1.06,0,0,1,0,.26,1,1,0,0,1,.26,0h2.31v.62h-3.32Z"/><path class="cls-1" d="M143.22,8.78a3.26,3.26,0,0,1-.47,2.06,3,3,0,0,1-2.36,1.07,2.83,2.83,0,0,1-2.53-1.35,3.44,3.44,0,0,1-.3-1.78v-5h.77v5a3.07,3.07,0,0,0,.38,1.63,2.09,2.09,0,0,0,3.49-.23,3.44,3.44,0,0,0,.25-1.4v-5h.77Z"/><path class="cls-1" d="M144.36,3.77h5V4.4h-1.9a1.06,1.06,0,0,1-.26,0,.66.66,0,0,1,0,.26v7h-.77v-7a1,1,0,0,1,0-.26,1.06,1.06,0,0,1-.26,0h-1.9Z"/><path class="cls-1" d="M150.62,3.77h.78v7.89h-.78Z"/><path class="cls-1" d="M161.57,7.67a4.27,4.27,0,0,1-4.38,4.22A4.41,4.41,0,0,1,154,10.43,4.06,4.06,0,0,1,153,7.69a4.31,4.31,0,0,1,8.61,0Zm-7.78,0a3.48,3.48,0,0,0,7,0,3.48,3.48,0,0,0-7,0Z"/><path class="cls-1" d="M163.15,3.27,168,8.7c.61.7.71.82,1.2,1.45h0c-.05-.81-.06-1-.06-1.89V3.77h.74V12l-4.8-5.47c-.61-.69-.71-.82-1.2-1.44h0c.05.8.06,1,.06,1.88v4.68h-.73Z"/><path class="cls-1" d="M171.92,10a1.83,1.83,0,0,0,1.84,1.26,1.59,1.59,0,0,0,1.72-1.62,1.83,1.83,0,0,0-.28-1A2.72,2.72,0,0,0,174.14,8a6.48,6.48,0,0,1-2.06-1.16,1.85,1.85,0,0,1-.48-1.27,2,2,0,0,1,2.21-2,2.43,2.43,0,0,1,1.58.51,2.3,2.3,0,0,1,.53.77l-.69.31c-.47-.69-.83-.91-1.45-.91a1.28,1.28,0,0,0-1.37,1.28c0,.66.37,1.07,1.33,1.46a5.56,5.56,0,0,1,2,1.1,2.2,2.2,0,0,1,.59,1.54,2.39,2.39,0,0,1-2.59,2.35,2.57,2.57,0,0,1-2-.86,2.65,2.65,0,0,1-.45-.79Z"/><path class="cls-1" d="M53.51,12.16l-.73-2H48.7l-.74,2h-.89l3.21-8.73h.92l3.19,8.73ZM49,9.41h3.55L50.74,4.53Z"/><path class="cls-1" d="M55.44,12.16V3.43h.89v8.73Z"/><path class="cls-1" d="M60.5,12.16,57.07,3.43H58l2.91,7.73,2.93-7.73h.94l-3.43,8.73Z"/><path class="cls-1" d="M70,12.16l-.73-2H65.21l-.75,2h-.88l3.21-8.73h.91l3.2,8.73ZM65.46,9.41H69L67.24,4.53Z"/></svg>