<svg id="Capa_1" data-name="Capa 1" xmlns="http://www.w3.org/2000/svg" viewBox="0 0 341.14 84.57"><defs><style>.cls-1{opacity:0.13;}.cls-2{fill:#428abd;}.cls-3{fill:gray;}.cls-4{fill:#3f3f3f;}</style></defs><title>aiva-health-logo-color</title><g class="cls-1"><rect class="cls-2" x="204.8" y="48.8" width="121.98" height="1.1"/><path class="cls-3" d="M15.18,49.9H55.52c.73,0,1-.52.67-1.14L36,13.82a.7.7,0,0,0-1.33,0L14.52,48.76C14.16,49.38,14.45,49.9,15.18,49.9Z"/><path class="cls-3" d="M139.77,49.9h40.34c.73,0,1-.52.66-1.15L160.6,13.82a.7.7,0,0,0-1.32,0L139.11,48.76C138.74,49.38,139,49.9,139.77,49.9Z"/><path class="cls-3" d="M116.27,49.49a.7.7,0,0,0,1.32,0l20.18-34.93c.36-.63.06-1.15-.67-1.15H96.76c-.73,0-1,.52-.66,1.15Z"/><path class="cls-3" d="M69.88,49.91H82.05a.67.67,0,0,0,.66-.67V14.13a.67.67,0,0,0-.66-.67H69.88a.68.68,0,0,0-.67.67V49.24A.67.67,0,0,0,69.88,49.91Z"/><polygon class="cls-2" points="211.42 49.9 190.31 13.35 180.93 13.35 202.04 49.9 211.42 49.9"/><path class="cls-2" d="M219.87,27.54h3.2v5.58a1.67,1.67,0,0,1,0,.52,1.7,1.7,0,0,1,.52,0h5.53a1.67,1.67,0,0,1,.52,0,1.67,1.67,0,0,1-.05-.52V27.54h3.23V43.22h-3.23V36.79a1.64,1.64,0,0,1,.05-.51,2.07,2.07,0,0,1-.52,0h-5.53a2.11,2.11,0,0,1-.52,0,1.64,1.64,0,0,1,0,.51v6.43h-3.2Z"/><path class="cls-2" d="M235.8,27.54h8.71V30.2h-5a2.11,2.11,0,0,1-.52,0,1.64,1.64,0,0,1,.05.51v2.66a1.67,1.67,0,0,1-.05.52,1.7,1.7,0,0,1,.52-.05h5v2.62h-5a1.7,1.7,0,0,1-.52-.05,1.67,1.67,0,0,1,.05.52V40a1.67,1.67,0,0,1-.05.52,1.7,1.7,0,0,1,.52-.05h5v2.78H235.8Z"/><path class="cls-2" d="M250.79,27.54h3.41l5.56,15.68h-3.37l-1.15-3.37h-5.6l-1.08,3.37h-3.28Zm2.47,9.82a11.54,11.54,0,0,1,1.2,0,9.53,9.53,0,0,1-.4-1.15l-.7-2.23a24,24,0,0,1-.9-3.42h-.09A30.13,30.13,0,0,1,251.5,34l-.71,2.26a11.31,11.31,0,0,1-.4,1.12,11.63,11.63,0,0,1,1.2,0Z"/><path class="cls-2" d="M261.21,27.54h3.2V40a2.07,2.07,0,0,1,0,.52,1.64,1.64,0,0,1,.51-.05h4.5v2.78h-8.17Z"/><path class="cls-2" d="M267.38,27.54h11.1v2.73H275a2.11,2.11,0,0,1-.52,0,1.64,1.64,0,0,1,0,.51V43.22h-3.2V30.74a1.64,1.64,0,0,1,.05-.51,2.07,2.07,0,0,1-.52,0h-3.48Z"/><path class="cls-2" d="M280.32,27.54h3.2v5.58a1.67,1.67,0,0,1,0,.52,1.7,1.7,0,0,1,.52,0h5.53a1.67,1.67,0,0,1,.52,0,1.67,1.67,0,0,1-.05-.52V27.54h3.23V43.22H290V36.79a1.64,1.64,0,0,1,.05-.51,2.07,2.07,0,0,1-.52,0H284a2.11,2.11,0,0,1-.52,0,1.64,1.64,0,0,1,0,.51v6.43h-3.2Z"/><path class="cls-4" d="M221.13,67.52a3.29,3.29,0,0,0,3.32,2.29,2.88,2.88,0,0,0,3.1-2.93,3.18,3.18,0,0,0-.52-1.73,4.87,4.87,0,0,0-1.9-1.18,11.59,11.59,0,0,1-3.72-2.09,3.35,3.35,0,0,1-.86-2.29c0-2.22,1.56-3.67,4-3.67a4.44,4.44,0,0,1,2.85.91,4.22,4.22,0,0,1,1,1.39l-1.24.56c-.86-1.24-1.5-1.65-2.61-1.65A2.32,2.32,0,0,0,222,59.44c0,1.2.66,2,2.39,2.65a10.27,10.27,0,0,1,3.55,2A4,4,0,0,1,229,66.84c0,2.48-1.94,4.25-4.66,4.25a4.69,4.69,0,0,1-3.66-1.56,5,5,0,0,1-.81-1.43Z"/><path class="cls-4" d="M246.45,63.42A7.69,7.69,0,0,1,238.56,71a8,8,0,0,1-5.73-2.63,7.33,7.33,0,0,1-1.9-4.94,7.76,7.76,0,0,1,15.52,0Zm-14,0a6.26,6.26,0,1,0,6.26-6.26A6.15,6.15,0,0,0,232.43,63.44Z"/><path class="cls-4" d="M249.26,56.39h1.39V69.06a1.68,1.68,0,0,1,0,.47,1.68,1.68,0,0,1,.47,0h4.17v1.13h-6Z"/><path class="cls-4" d="M267.14,65.43a5.76,5.76,0,0,1-.86,3.7A5.28,5.28,0,0,1,262,71.07a5.08,5.08,0,0,1-4.55-2.43,6.09,6.09,0,0,1-.56-3.21v-9h1.39v9a5.61,5.61,0,0,0,.68,2.93,3.68,3.68,0,0,0,3,1.49A3.62,3.62,0,0,0,265.3,68a6.39,6.39,0,0,0,.45-2.52v-9h1.39Z"/><path class="cls-4" d="M269.2,56.39h9.08v1.13h-3.42a1.75,1.75,0,0,1-.47,0,1.36,1.36,0,0,1,.05.47V70.62h-1.39V58a1.68,1.68,0,0,1,0-.47,1.72,1.72,0,0,1-.47,0H269.2Z"/><path class="cls-4" d="M280.49,56.39h1.39V70.62h-1.39Z"/><path class="cls-4" d="M300.23,63.42A7.7,7.7,0,0,1,292.34,71a8,8,0,0,1-5.73-2.63,7.34,7.34,0,0,1-1.91-4.94,7.77,7.77,0,0,1,15.53,0Zm-14,0a6.27,6.27,0,1,0,6.27-6.26A6.16,6.16,0,0,0,286.2,63.44Z"/><path class="cls-4" d="M303.08,55.49l8.66,9.79c1.11,1.26,1.28,1.47,2.16,2.61l.06,0c-.08-1.46-.1-1.78-.1-3.4V56.39h1.32V71.22l-8.66-9.85c-1.09-1.24-1.28-1.48-2.16-2.61l-.06,0c.09,1.45.11,1.82.11,3.4v8.44h-1.33Z"/><path class="cls-4" d="M318.91,67.52a3.29,3.29,0,0,0,3.32,2.29,2.88,2.88,0,0,0,3.1-2.93,3.18,3.18,0,0,0-.52-1.73,4.87,4.87,0,0,0-1.9-1.18,11.59,11.59,0,0,1-3.72-2.09,3.3,3.3,0,0,1-.86-2.29c0-2.22,1.56-3.67,4-3.67a4.39,4.39,0,0,1,2.84.91,4.09,4.09,0,0,1,1,1.39l-1.24.56c-.86-1.24-1.5-1.65-2.61-1.65a2.32,2.32,0,0,0-2.48,2.31c0,1.2.66,2,2.39,2.65a10.37,10.37,0,0,1,3.55,2,4,4,0,0,1,1,2.78c0,2.48-1.95,4.25-4.66,4.25a4.69,4.69,0,0,1-3.66-1.56,5,5,0,0,1-.81-1.43Z"/></g></svg>