<svg id="Capa_1" data-name="Capa 1" xmlns="http://www.w3.org/2000/svg" viewBox="0 0 141.14 31.14"><defs><style>.cls-1{fill:#80c5dd;}.cls-2{fill:#fff;}</style></defs><title>aiva-health-logo</title><rect class="cls-1" x="85.25" y="18.37" width="52.3" height="0.47"/><path class="cls-2" d="M4,18.84h17.3c.31,0,.44-.23.28-.49l-8.65-15c-.15-.27-.41-.27-.57,0l-8.64,15C3.51,18.61,3.64,18.84,4,18.84Z"/><path class="cls-2" d="M57.37,18.84H74.66c.32,0,.44-.23.29-.5l-8.65-15a.3.3,0,0,0-.57,0l-8.65,15C56.92,18.61,57.05,18.84,57.37,18.84Z"/><path class="cls-2" d="M47.29,18.66a.3.3,0,0,0,.57,0l8.65-15c.15-.27,0-.49-.29-.49H38.93c-.32,0-.45.22-.29.49Z"/><path class="cls-2" d="M27.4,3.21h5.22a.28.28,0,0,1,.28.28V18.55a.29.29,0,0,1-.29.29H27.4a.29.29,0,0,1-.29-.29V3.5a.29.29,0,0,1,.29-.29Z"/><polygon class="cls-1" points="88.08 18.84 79.04 3.17 75.01 3.17 84.06 18.84 88.08 18.84"/><path class="cls-1" d="M91.71,9.25h1.37v2.39a.75.75,0,0,1,0,.22.75.75,0,0,1,.22,0h2.37a.75.75,0,0,1,.22,0,.75.75,0,0,1,0-.22V9.25h1.39V16H95.85V13.22a.86.86,0,0,1,0-.23.75.75,0,0,1-.22,0H93.28a.75.75,0,0,1-.22,0,.86.86,0,0,1,0,.23V16H91.71Z"/><path class="cls-1" d="M98.54,9.25h3.73v1.14h-2.16a.75.75,0,0,1-.22,0,.75.75,0,0,1,0,.22v1.14a.86.86,0,0,1,0,.23.75.75,0,0,1,.22,0h2.16v1.11H99.89a.75.75,0,0,1,0,.22v1.32a.75.75,0,0,1,0,.22.75.75,0,0,1,.22,0h2.16V16H98.54Z"/><path class="cls-1" d="M105,9.25h1.47L108.81,16h-1.44l-.5-1.44h-2.4L104,16H102.6ZM106,13.46a4.27,4.27,0,0,1,.52,0,3.63,3.63,0,0,1-.17-.5l-.31-1a10.62,10.62,0,0,1-.38-1.47h0a12.65,12.65,0,0,1-.37,1.47L105,13a4.65,4.65,0,0,1-.17.49,4.35,4.35,0,0,1,.52,0Z"/><path class="cls-1" d="M109.43,9.25h1.37v5.33a.75.75,0,0,1,0,.22.86.86,0,0,1,.23,0h1.92V16h-3.5Z"/><path class="cls-1" d="M112.08,9.25h4.76v1.17h-1.5a.75.75,0,0,1-.22,0,.75.75,0,0,1,0,.22V16h-1.37V10.62a.75.75,0,0,1,0-.22.75.75,0,0,1-.22,0h-1.49Z"/><path class="cls-1" d="M117.62,9.25H119v2.39a.75.75,0,0,1,0,.22.75.75,0,0,1,.22,0h2.37a.75.75,0,0,1,.22,0,.75.75,0,0,1,0-.22V9.25h1.38V16h-1.38V13.22a.86.86,0,0,1,0-.23.75.75,0,0,1-.22,0H119.2a.75.75,0,0,1-.22,0,.86.86,0,0,1,0,.23V16h-1.38Z"/><path class="cls-2" d="M92.25,26.39a1.4,1.4,0,0,0,1.42,1A1.23,1.23,0,0,0,95,26.12a1.37,1.37,0,0,0-.22-.75,2,2,0,0,0-.82-.5,4.87,4.87,0,0,1-1.59-.9A1.41,1.41,0,0,1,92,23a1.55,1.55,0,0,1,1.71-1.58,1.88,1.88,0,0,1,1.22.4,1.78,1.78,0,0,1,.41.59l-.53.24c-.37-.53-.65-.7-1.12-.7a1,1,0,0,0-1.07,1c0,.51.29.83,1,1.13a4.27,4.27,0,0,1,1.52.85,1.67,1.67,0,0,1,.45,1.19,1.84,1.84,0,0,1-2,1.82,2,2,0,0,1-1.56-.67,2,2,0,0,1-.35-.61Z"/><path class="cls-2" d="M103.1,24.63a3.29,3.29,0,0,1-3.38,3.26,3.47,3.47,0,0,1-2.46-1.12,3.16,3.16,0,0,1-.81-2.12,3.33,3.33,0,0,1,6.65,0Zm-6,0A2.69,2.69,0,1,0,99.78,22,2.65,2.65,0,0,0,97.09,24.64Z"/><path class="cls-2" d="M104.31,21.62h.6v5.43a.62.62,0,0,1,0,.2h2v.48h-2.57Z"/><path class="cls-2" d="M112,25.49a2.52,2.52,0,0,1-.36,1.59,2.29,2.29,0,0,1-1.83.83,2.18,2.18,0,0,1-2-1,2.65,2.65,0,0,1-.24-1.38V21.62h.6v3.87a2.42,2.42,0,0,0,.29,1.26,1.59,1.59,0,0,0,1.3.64,1.57,1.57,0,0,0,1.41-.81,3,3,0,0,0,.19-1.09V21.62H112Z"/><path class="cls-2" d="M112.86,21.62h3.89v.48h-1.46a.68.68,0,0,1-.21,0,.68.68,0,0,1,0,.21v5.43h-.59V22.29a1.34,1.34,0,0,1,0-.21.62.62,0,0,1-.2,0h-1.46Z"/><path class="cls-2" d="M117.7,21.62h.59v6.1h-.59Z"/><path class="cls-2" d="M126.16,24.63a3.29,3.29,0,0,1-3.38,3.26,3.45,3.45,0,0,1-2.46-1.12,3.17,3.17,0,0,1-.82-2.12,3.33,3.33,0,0,1,6.66,0Zm-6,0A2.69,2.69,0,1,0,122.83,22,2.64,2.64,0,0,0,120.15,24.64Z"/><path class="cls-2" d="M127.38,21.23l3.72,4.2c.47.54.55.63.92,1.12h0c0-.62-.05-.76-.05-1.46V21.62h.57V28l-3.71-4.23c-.47-.53-.55-.63-.93-1.12h0c0,.63,0,.78,0,1.46v3.62h-.57Z"/><path class="cls-2" d="M134.17,26.39a1.4,1.4,0,0,0,1.42,1,1.23,1.23,0,0,0,1.33-1.25,1.37,1.37,0,0,0-.22-.75,2,2,0,0,0-.82-.5,4.87,4.87,0,0,1-1.59-.9,1.41,1.41,0,0,1-.37-1,1.55,1.55,0,0,1,1.71-1.58,1.88,1.88,0,0,1,1.22.4,1.78,1.78,0,0,1,.41.59l-.53.24c-.37-.53-.64-.7-1.12-.7a1,1,0,0,0-1.06,1c0,.51.28.83,1,1.13a4.27,4.27,0,0,1,1.52.85,1.67,1.67,0,0,1,.45,1.19,1.84,1.84,0,0,1-2,1.82,2,2,0,0,1-1.57-.67,2,2,0,0,1-.35-.61Z"/></svg>